<?xml version="1.0" standalone="no"?><!DOCTYPE svg PUBLIC "-//W3C//DTD SVG 1.1//EN"   "http://www.w3.org/Graphics/SVG/1.1/DTD/svg11.dtd"><svg width="864pt" height="212.6pt" viewBox="0 0 864 212.6" version="1.1"    xmlns="http://www.w3.org/2000/svg" xmlns:xlink="http://www.w3.org/1999/xlink">  <defs>  </defs><g id="Group ID: 1">
   <path id="Path0" stroke-width="0.7" stroke="#FF0000" stroke-opacity="1" fill="none" fill-opacity="0" stroke-linecap="round" stroke-linejoin="round" d="M442.1,175.6 C449.1,173.3 455.4,167.3 453.8,164.4 451.9,160.9 440.4,158.6 431.5,159.9 424,161 418.7,163.7 418.7,166.3 418.7,169.5 425.9,174.7 432.2,176.1 434.8,176.7 439.3,176.5 442.1,175.6 Z " />
   <path id="Path1" stroke-width="0.7" stroke="#FF0000" stroke-opacity="1" fill="none" fill-opacity="0" stroke-linecap="round" stroke-linejoin="round" d="M467.9,160.1 C475.6,157.9 482.3,150.9 483.8,143.4 484.7,138.5 483.9,132.2 481.9,129 480.6,127.1 477.8,126.4 474.6,127.3 471.2,128.3 464.3,134.2 461.4,138.7 456.8,145.6 455,155.1 457.7,158.4 459.5,160.5 463.8,161.3 467.9,160.1 Z " />
   <path id="Path2" stroke-width="0.7" stroke="#FF0000" stroke-opacity="1" fill="none" fill-opacity="0" stroke-linecap="round" stroke-linejoin="round" d="M411.8,159.6 C414.2,158.6 415.1,157.2 415.2,153.7 415.5,149.3 413.7,143.8 410.7,139.6 409.1,137.4 405.8,134.2 403.4,132.5 398.4,129.1 392.8,128.5 390.5,131 389,132.5 388.5,134.5 388.5,138.2 388.6,141.8 389.2,144.7 390.9,148.4 393.1,153.2 398.8,158 404.1,159.5 406.3,160.2 410.4,160.2 411.8,159.6 Z " />
   <path id="Path3" stroke-width="0.7" stroke="#FF0000" stroke-opacity="1" fill="none" fill-opacity="0" stroke-linecap="round" stroke-linejoin="round" d="M442.7,153.4 C448.5,151.6 453.2,146.9 454.6,141.4 455.1,139.4 455.1,135.4 454.6,133.3 453.1,127.8 448.1,122.8 442.3,121.2 435.2,119.3 428.4,121.1 423.3,126.2 421.1,128.4 419.6,131.1 419,134 418.5,136.3 418.7,140.8 419.5,142.8 421.8,148.8 427.3,153.1 434.1,154.1 436.4,154.5 440.3,154.2 442.7,153.4 Z " />
   <path id="Path4" stroke-width="0.7" stroke="#FF0000" stroke-opacity="1" fill="none" fill-opacity="0" stroke-linecap="round" stroke-linejoin="round" d="M386.3,128.2 C387.8,127.4 389,125.3 390.3,121.1 391.8,116.5 392.4,112.4 392.4,106.9 392.5,101.6 392.1,99.4 390.8,98.1 389.4,96.7 387.8,97.3 384.2,100.9 380.4,104.7 378.9,108.6 378.9,114.4 378.9,118.1 379.5,120.6 381.2,123.9 382.2,125.8 384.6,128.6 385.2,128.6 385.4,128.6 385.9,128.4 386.3,128.2 Z " />
   <path id="Path5" stroke-width="0.7" stroke="#FF0000" stroke-opacity="1" fill="none" fill-opacity="0" stroke-linecap="round" stroke-linejoin="round" d="M487.8,126.8 C492.1,122.1 493.7,114.5 491.8,108.2 490.5,104 487.7,100.1 484.2,97.8 482.5,96.7 481.7,96.6 480.8,97.4 479.4,98.7 478.8,101.2 478.8,105.9 478.8,114.3 481.2,123.8 484,126.8 485.6,128.4 486.3,128.4 487.8,126.8 Z " />
   <path id="Path6" stroke-width="0.7" stroke="#FF0000" stroke-opacity="1" fill="none" fill-opacity="0" stroke-linecap="round" stroke-linejoin="round" d="M418.5,123 C421.4,121.9 424.1,120.1 426.7,117.5 428.8,115.4 429.3,114.7 430.6,112.1 432.3,108.4 432.9,106.2 432.9,102.7 432.9,99.4 432.4,97.1 431.1,94.7 425.8,84.8 412.6,84.4 404,93.8 394.6,104.1 397.3,120 409,123.4 411.1,124 416.4,123.8 418.5,123 Z " />
   <path id="Path7" stroke-width="0.7" stroke="#FF0000" stroke-opacity="1" fill="none" fill-opacity="0" stroke-linecap="round" stroke-linejoin="round" d="M463.9,122.5 C469,121.2 473.2,116.5 474.3,111.1 474.8,108.3 474.5,103.4 473.6,100.9 471,93.4 465,87.9 457.8,86.4 451,85.1 444.5,88.3 441.6,94.4 435.9,106.6 446.3,122.8 459.8,122.9 461.2,122.9 463,122.7 463.9,122.5 Z " />
   <path id="Path8" stroke-width="0.7" stroke="#FF0000" stroke-opacity="1" fill="none" fill-opacity="0" stroke-linecap="round" stroke-linejoin="round" d="M480.5,90.7 C480.7,87.6 479.4,82.4 477.8,79.5 475.3,75.3 471.2,72.1 466.3,70.7 463.9,70 457.6,69.7 455.7,70.1 454.7,70.3 454.6,70.4 454.6,71.1 454.8,73.2 461.8,80.4 469.4,86.3 474.7,90.4 477.9,92.3 479.4,92.2 480.3,92.1 480.4,92.1 480.5,90.7 Z " />
   <path id="Path9" stroke-width="0.7" stroke="#FF0000" stroke-opacity="1" fill="none" fill-opacity="0" stroke-linecap="round" stroke-linejoin="round" d="M394.5,91 C398.1,89.2 405.5,83.4 411.1,77.8 414.9,74 416.8,71.5 416.7,70.4 416.6,69.8 416.4,69.7 414.7,69.5 412.4,69.2 408.3,69.5 406,70 404.9,70.3 402.9,71.1 401.4,71.8 396.3,74.2 392.9,78.7 391.5,84.7 390.8,87.5 390.7,91.6 391.3,91.8 391.8,92 392.9,91.8 394.5,91 Z " />
   <path id="Path10" stroke-width="0.7" stroke="#FF0000" stroke-opacity="1" fill="none" fill-opacity="0" stroke-linecap="round" stroke-linejoin="round" d="M444.6,84.5 C450.3,82.8 453,80.4 453,77 453,71.8 444.2,66.2 436.1,66.2 431.1,66.2 425.6,68.5 422.2,72.1 419.6,74.7 419.3,76.7 421,79.4 422.9,82.2 427,84.2 432.9,85.3 433.3,85.4 435.5,85.4 437.8,85.3 441.4,85.3 442.5,85.1 444.6,84.5 Z " />
</g>

</svg>
