<?xml version="1.0" standalone="no"?><!DOCTYPE svg PUBLIC "-//W3C//DTD SVG 1.1//EN"   "http://www.w3.org/Graphics/SVG/1.1/DTD/svg11.dtd"><svg width="864pt" height="212.6pt" viewBox="0 0 864 212.6" version="1.1"    xmlns="http://www.w3.org/2000/svg" xmlns:xlink="http://www.w3.org/1999/xlink">  <defs>  </defs><g id="Group ID: 1">
   <path id="Path0" stroke-width="0.7" stroke="#FF0000" stroke-opacity="1" fill="none" fill-opacity="0" stroke-linecap="round" stroke-linejoin="round" d="M432.8,181.4 C430,180.9 427.7,180.2 425.3,179.1 422.4,177.7 420.8,176.6 418.4,174.4 417.2,173.3 416,172.5 414.9,172 411.9,170.8 404.9,167.1 404.2,166.3 403.7,165.7 400.1,163.4 399.1,163.1 397.2,162.4 393.5,159.7 391.2,157.5 387.3,153.4 384.6,148.6 383.8,143.8 383.6,142.7 382.9,140.3 382.3,138.4 381.6,136.5 380.8,134 380.6,132.9 380.2,131.2 379.8,130.4 378.8,129.3 374.3,123.7 372.6,115.9 374.3,108.8 375.8,103.2 379.2,97.8 382.9,95.1 385.1,93.6 385.4,92.8 385.8,88.4 386.4,80.7 389.3,74.8 394.7,70.6 395.8,69.7 397.4,68.6 398.2,68.1 399,67.6 399.8,67.2 399.8,67.1 399.9,66.9 399.2,66.6 398.3,66.4 397.1,66 396.4,65.6 395.6,64.8 395.1,64.1 394.6,63.4 394.6,63.2 394.6,63 394.2,62.7 393.8,62.6 391.7,62.1 389.8,60.4 389.4,58.5 389.3,58 388.9,57.5 388.4,57.3 386.7,56.4 385,53.8 385,52.2 385,51.8 384.7,51.3 384.3,51 383.3,50.4 382.4,48.6 382.4,47.2 382.4,46.4 382.1,45.7 381.5,44.7 380.7,43.5 380.6,43.1 380.5,41.5 380.5,40.2 380.3,39.4 379.9,38.7 379.1,37.4 379.1,35.7 379.8,34.4 380.4,33.4 380.4,33.2 380,32.3 379.4,30.9 379.5,29.9 380.1,28.8 381,27.5 382.3,26.8 384,26.8 385.1,26.8 385.6,26.6 386,26.2 387,25.1 388.7,24.4 390.9,24.3 392.5,24.1 393.2,24 394,23.4 394.7,23 395.4,22.8 396.5,22.8 397.4,22.8 398.3,22.6 398.9,22.2 400.4,21.4 401.5,21.3 403.4,21.8 405,22.2 405.2,22.2 405.7,21.8 406.6,20.9 408.2,20.9 410.2,21.8 411.8,22.4 412.3,22.5 412.9,22.2 413.8,21.8 415.4,22.1 416.7,22.8 417.3,23.2 418.1,23.3 419.3,23.3 421.3,23.3 422.9,24.1 423.8,25.3 424.4,26.1 424.7,26.2 425.8,26.2 426.9,26.2 427.3,26.4 428.8,27.6 431.7,29.9 434,33.4 435.7,38.1 435.7,38.1 436.5,40.1 436.5,40.1 436.5,40.1 437.1,38.3 437.1,38.3 438.5,34.4 440.7,30.9 443,28.7 445.2,26.6 445.9,26.2 447.2,26.2 448.2,26.2 448.5,26 449.3,25.2 450.7,23.7 451.6,23.3 453.6,23.3 454.9,23.3 455.7,23.2 456.9,22.6 458.2,22 458.5,21.9 459.7,22.2 460.9,22.4 461.3,22.4 462.7,21.8 464.7,20.9 465.6,20.9 467,21.6 468,22.2 468.1,22.2 469.5,21.7 470.7,21.4 471.1,21.3 472.4,21.6 473.3,21.8 474.1,22.1 474.3,22.4 474.5,22.6 475.2,22.8 476.2,22.8 477.6,22.8 479.7,23.4 479.7,23.9 479.7,24 480.7,24.2 481.9,24.3 484.4,24.4 486.5,25.3 487,26.2 487.3,26.6 487.6,26.7 488.8,26.7 492.2,26.7 494.1,29.2 493,32.4 492.7,33.1 492.7,33.5 493.3,34.8 493.8,36.1 493.8,36.4 493.6,37.4 493.4,38.1 493,38.9 492.7,39.3 492.3,39.8 492.3,40.1 492.5,40.8 492.8,41.9 492.2,43.8 491.2,45.1 490.7,45.7 490.5,46.3 490.5,47.2 490.5,48.7 490.1,49.5 488.9,50.9 488.3,51.5 487.9,52.3 487.8,53 487.6,54.3 486.7,55.6 485.2,56.8 484.6,57.3 483.7,58.4 483.2,59.3 482.3,61.1 481.5,61.8 479.8,62.3 479,62.6 478.5,63 478.1,63.8 477.3,65.1 476,66.1 474.4,66.5 473.7,66.7 473.1,66.9 473.1,67 473.2,67.1 474.2,67.8 475.5,68.6 476.8,69.4 478.9,71.1 480.4,72.6 482.6,74.8 483.1,75.5 484.4,78.1 486.1,81.6 486.9,84.7 487.2,88.9 487.4,92.5 487.9,93.5 489.8,95 494.2,98.1 497.6,103.8 498.8,109.8 499.2,111.4 499.3,112.9 499.2,115.5 499,118.6 498.9,119.5 498.1,121.8 497.1,124.9 496.4,126.2 494.3,129 493.3,130.3 492.7,131.4 492.6,132.1 492.5,132.8 491.7,135.4 490.9,138 490,140.5 489.1,143.6 488.9,144.7 487.9,149.4 485.4,153.9 481.7,157.5 479.2,160 476.6,161.9 474.1,162.9 473.2,163.3 471.5,164.3 470.4,165.1 467.3,167.4 462.6,170.1 459.4,171.4 457.2,172.4 456.2,173 454.7,174.3 451.2,177.5 447.4,179.7 443.2,180.8 440.6,181.5 435.3,181.8 432.8,181.4 Z " />
   <path id="Path1" stroke-width="0.7" stroke="#FF0000" stroke-opacity="1" fill="none" fill-opacity="0" stroke-linecap="round" stroke-linejoin="round" d="M442.1,175.6 C449.1,173.3 455.4,167.3 453.8,164.4 451.9,160.9 440.4,158.6 431.5,159.9 424,161 418.7,163.7 418.7,166.3 418.7,169.5 425.9,174.7 432.2,176.1 434.8,176.7 439.3,176.5 442.1,175.6 Z " />
   <path id="Path2" stroke-width="0.7" stroke="#FF0000" stroke-opacity="1" fill="none" fill-opacity="0" stroke-linecap="round" stroke-linejoin="round" d="M467.9,160.1 C475.6,157.9 482.3,150.9 483.8,143.4 484.7,138.5 483.9,132.2 481.9,129 480.6,127.1 477.8,126.4 474.6,127.3 471.2,128.3 464.3,134.2 461.4,138.7 456.8,145.6 455,155.1 457.7,158.4 459.5,160.5 463.8,161.3 467.9,160.1 Z " />
   <path id="Path3" stroke-width="0.7" stroke="#FF0000" stroke-opacity="1" fill="none" fill-opacity="0" stroke-linecap="round" stroke-linejoin="round" d="M411.8,159.6 C414.2,158.6 415.1,157.2 415.2,153.7 415.5,149.3 413.7,143.8 410.7,139.6 409.1,137.4 405.8,134.2 403.4,132.5 398.4,129.1 392.8,128.5 390.5,131 389,132.5 388.5,134.5 388.5,138.2 388.6,141.8 389.2,144.7 390.9,148.4 393.1,153.2 398.8,158 404.1,159.5 406.3,160.2 410.4,160.2 411.8,159.6 Z " />
   <path id="Path4" stroke-width="0.7" stroke="#FF0000" stroke-opacity="1" fill="none" fill-opacity="0" stroke-linecap="round" stroke-linejoin="round" d="M442.7,153.4 C448.5,151.6 453.2,146.9 454.6,141.4 455.1,139.4 455.1,135.4 454.6,133.3 453.1,127.8 448.1,122.8 442.3,121.2 435.2,119.3 428.4,121.1 423.3,126.2 421.1,128.4 419.6,131.1 419,134 418.5,136.3 418.7,140.8 419.5,142.8 421.8,148.8 427.3,153.1 434.1,154.1 436.4,154.5 440.3,154.2 442.7,153.4 Z " />
   <path id="Path5" stroke-width="0.7" stroke="#FF0000" stroke-opacity="1" fill="none" fill-opacity="0" stroke-linecap="round" stroke-linejoin="round" d="M386.3,128.2 C387.8,127.4 389,125.3 390.3,121.1 391.8,116.5 392.4,112.4 392.4,106.9 392.5,101.6 392.1,99.4 390.8,98.1 389.4,96.7 387.8,97.3 384.2,100.9 380.4,104.7 378.9,108.6 378.9,114.4 378.9,118.1 379.5,120.6 381.2,123.9 382.2,125.8 384.6,128.6 385.2,128.6 385.4,128.6 385.9,128.4 386.3,128.2 Z " />
   <path id="Path6" stroke-width="0.7" stroke="#FF0000" stroke-opacity="1" fill="none" fill-opacity="0" stroke-linecap="round" stroke-linejoin="round" d="M487.8,126.8 C492.1,122.1 493.7,114.5 491.8,108.2 490.5,104 487.7,100.1 484.2,97.8 482.5,96.7 481.7,96.6 480.8,97.4 479.4,98.7 478.8,101.2 478.8,105.9 478.8,114.3 481.2,123.8 484,126.8 485.6,128.4 486.3,128.4 487.8,126.8 Z " />
   <path id="Path7" stroke-width="0.7" stroke="#FF0000" stroke-opacity="1" fill="none" fill-opacity="0" stroke-linecap="round" stroke-linejoin="round" d="M418.5,123 C421.4,121.9 424.1,120.1 426.7,117.5 428.8,115.4 429.3,114.7 430.6,112.1 432.3,108.4 432.9,106.2 432.9,102.7 432.9,99.4 432.4,97.1 431.1,94.7 425.8,84.8 412.6,84.4 404,93.8 394.6,104.1 397.3,120 409,123.4 411.1,124 416.4,123.8 418.5,123 Z " />
   <path id="Path8" stroke-width="0.7" stroke="#FF0000" stroke-opacity="1" fill="none" fill-opacity="0" stroke-linecap="round" stroke-linejoin="round" d="M463.9,122.5 C469,121.2 473.2,116.5 474.3,111.1 474.8,108.3 474.5,103.4 473.6,100.9 471,93.4 465,87.9 457.8,86.4 451,85.1 444.5,88.3 441.6,94.4 435.9,106.6 446.3,122.8 459.8,122.9 461.2,122.9 463,122.7 463.9,122.5 Z " />
   <path id="Path9" stroke-width="0.7" stroke="#FF0000" stroke-opacity="1" fill="none" fill-opacity="0" stroke-linecap="round" stroke-linejoin="round" d="M480.5,90.7 C480.7,87.6 479.4,82.4 477.8,79.5 475.3,75.3 471.2,72.1 466.3,70.7 463.9,70 457.6,69.7 455.7,70.1 454.7,70.3 454.6,70.4 454.6,71.1 454.8,73.2 461.8,80.4 469.4,86.3 474.7,90.4 477.9,92.3 479.4,92.2 480.3,92.1 480.4,92.1 480.5,90.7 Z " />
   <path id="Path10" stroke-width="0.7" stroke="#FF0000" stroke-opacity="1" fill="none" fill-opacity="0" stroke-linecap="round" stroke-linejoin="round" d="M394.5,91 C398.1,89.2 405.5,83.4 411.1,77.8 414.9,74 416.8,71.5 416.7,70.4 416.6,69.8 416.4,69.7 414.7,69.5 412.4,69.2 408.3,69.5 406,70 404.9,70.3 402.9,71.1 401.4,71.8 396.3,74.2 392.9,78.7 391.5,84.7 390.8,87.5 390.7,91.6 391.3,91.8 391.8,92 392.9,91.8 394.5,91 Z " />
   <path id="Path11" stroke-width="0.7" stroke="#FF0000" stroke-opacity="1" fill="none" fill-opacity="0" stroke-linecap="round" stroke-linejoin="round" d="M444.6,84.5 C450.3,82.8 453,80.4 453,77 453,71.8 444.2,66.2 436.1,66.2 431.1,66.2 425.6,68.5 422.2,72.1 419.6,74.7 419.3,76.7 421,79.4 422.9,82.2 427,84.2 432.9,85.3 433.3,85.4 435.5,85.4 437.8,85.3 441.4,85.3 442.5,85.1 444.6,84.5 Z " />
   <path id="Path12" stroke-width="0.7" stroke="#FF0000" stroke-opacity="1" fill="none" fill-opacity="0" stroke-linecap="round" stroke-linejoin="round" d="M411.2,65.5 C417.9,64.6 422.1,62.2 424.3,57.9 424.8,56.9 425.2,56 425.2,55.8 425.2,55 418.5,49.4 413.6,46.1 409.9,43.7 403.4,39.9 399.3,37.8 397.7,37 396.3,36.2 396.3,36.1 396.3,35.6 405.8,39.4 411.1,42.1 416.5,44.8 423.5,49.1 425.8,51.2 426.2,51.5 426.8,52.1 427.1,52.4 427.1,52.4 427.8,52.9 427.8,52.9 427.8,52.9 429.3,51.9 429.3,51.9 432.1,50 433.4,47.1 433.1,43.8 432.7,40.2 430.2,35.1 427.2,31.8 427.2,31.8 425.9,30.3 425.9,30.3 425.9,30.3 425.5,31.6 425.5,31.6 425.5,31.6 425.2,32.8 425.2,32.8 425.2,32.8 422.5,30 422.5,30 422.5,30 419.9,27.2 419.9,27.2 419.9,27.2 419.8,28.3 419.8,28.3 419.8,29 419.7,29.7 419.4,29.9 419.1,30.1 418.8,30 418,29.1 417.5,28.5 416.5,27.6 415.7,27.1 415.7,27.1 414.4,26.1 414.4,26.1 414.4,26.1 414.6,26.9 414.6,26.9 414.7,27.3 414.6,27.9 414.3,28.3 414.3,28.3 413.9,29 413.9,29 413.9,29 411.9,27.5 411.9,27.5 410.8,26.7 409.6,25.9 409.1,25.7 409.1,25.7 408.2,25.4 408.2,25.4 408.2,25.4 408.6,26 408.6,26 409.1,26.8 409.2,27.8 408.8,28 408.6,28.1 408,27.9 407.3,27.5 406.1,26.8 402.9,25.6 402.2,25.6 402.1,25.6 402.3,26 402.7,26.5 403.4,27.4 403.5,28.4 402.8,28.3 402.6,28.2 401.6,28 400.6,27.7 399.5,27.4 398.2,27 397.6,26.9 397.6,26.9 396.4,26.7 396.4,26.7 396.4,26.7 397.1,27.4 397.1,27.4 397.8,28.2 397.9,29.5 397.2,29.4 396.9,29.3 396.1,29.1 395.2,28.9 393.6,28.4 390,28.3 389.7,28.6 389.6,28.8 389.9,29.3 390.4,29.8 390.4,29.8 391.3,30.7 391.3,30.7 391.3,30.7 387.5,30.7 387.5,30.7 387.5,30.7 383.8,30.7 383.8,30.7 383.8,30.7 384.4,31.6 384.4,31.6 385.2,32.9 386.7,35.9 386.7,36.4 386.7,36.6 386.3,36.7 385.1,36.6 384.2,36.6 383.5,36.6 383.5,36.7 383.5,37 385.1,38.8 386.6,40.2 387.4,41 388,41.7 387.9,41.9 387.8,42 387,42.1 386.2,42 386.2,42 384.7,41.9 384.7,41.9 384.7,41.9 385.2,42.7 385.2,42.7 385.5,43.2 386.5,44.3 387.6,45.3 388.6,46.2 389.4,47.1 389.3,47.2 389.2,47.4 388.6,47.5 387.8,47.5 387.8,47.5 386.5,47.5 386.5,47.5 386.5,47.5 387.9,48.8 387.9,48.8 388.7,49.5 390,50.5 390.8,51.1 391.7,51.6 392.3,52.2 392.2,52.3 392.1,52.5 391.4,52.6 390.7,52.6 390.7,52.6 389.4,52.6 389.4,52.6 389.4,52.6 390.4,53.6 390.4,53.6 391,54.1 392.6,55.1 393.8,55.7 395.1,56.4 396.2,56.9 396.3,57 396.5,57.2 395.9,57.5 394.8,57.7 394.8,57.7 393.6,57.8 393.6,57.8 393.6,57.8 394.6,58.5 394.6,58.5 395.1,58.8 396.8,59.5 398.3,60 398.3,60 401,60.9 401,60.9 401,60.9 400,61.7 400,61.7 400,61.7 399.1,62.4 399.1,62.4 399.1,62.4 400,62.7 400,62.7 400.6,62.9 402.2,63.2 403.8,63.3 405.4,63.5 406.7,63.7 406.9,63.9 407,64 406.6,64.5 406,65 406,65 405,65.9 405,65.9 405,65.9 406.5,65.9 406.5,65.9 407.4,65.9 409.5,65.7 411.2,65.5 Z " />
   <path id="Path13" stroke-width="0.7" stroke="#FF0000" stroke-opacity="1" fill="none" fill-opacity="0" stroke-linecap="round" stroke-linejoin="round" d="M468.3,65.8 C468.3,65.7 467.9,65.4 467.3,65.1 466.4,64.6 466,63.6 466.5,63.6 470.3,63.4 474.3,62.7 474.3,62.2 474.3,62.1 473.9,61.9 473.4,61.7 472.9,61.5 472.6,61.3 472.6,61.1 472.7,60.9 473.9,60.4 475.5,59.8 477,59.3 478.6,58.7 479,58.4 479,58.4 479.8,57.8 479.8,57.8 479.8,57.8 478.6,57.7 478.6,57.7 477.5,57.5 476.9,57.2 477.1,57 477.2,57 478.5,56.2 480,55.4 481.5,54.6 483,53.6 483.4,53.2 483.4,53.2 484,52.6 484,52.6 484,52.6 482.7,52.6 482.7,52.6 482,52.6 481.3,52.5 481.3,52.3 481.2,52.2 482.1,51.4 483.3,50.5 484.5,49.6 485.8,48.5 486.2,48.2 486.2,48.2 486.8,47.5 486.8,47.5 486.8,47.5 485.4,47.5 485.4,47.5 484.6,47.5 483.9,47.4 483.9,47.3 483.9,47.2 484.8,46.2 486,45 487.2,43.9 488.2,42.8 488.4,42.4 488.7,41.9 488.6,41.9 487.2,42 486.3,42.1 485.6,42 485.5,41.8 485.4,41.7 486.3,40.6 487.5,39.5 488.6,38.3 489.6,37.2 489.6,37 489.6,36.8 489.1,36.7 488.1,36.7 488.1,36.7 486.7,36.7 486.7,36.7 486.7,36.7 486.9,35.8 486.9,35.8 486.9,35.3 487.5,34 488.1,33 488.7,32 489.2,31.1 489.2,30.9 489.3,30.8 487.7,30.7 485.7,30.7 485.7,30.7 482.1,30.7 482.1,30.7 482.1,30.7 483,29.8 483,29.8 483.5,29.3 483.8,28.8 483.7,28.6 483.3,28.3 479.7,28.5 477.7,29 476.6,29.3 475.6,29.4 475.6,29.4 475.2,29 475.4,28.5 476.1,27.6 476.1,27.6 476.9,26.8 476.9,26.8 476.9,26.8 475.9,26.9 475.9,26.9 474.8,27.1 471.2,28 470.5,28.3 469.7,28.6 469.9,27.3 470.8,26.4 471.2,26 471.4,25.6 471.2,25.6 470.5,25.6 467.2,26.8 466.1,27.5 465.4,27.8 464.8,28.2 464.6,28.2 464.1,28.2 464.2,27 464.7,26.2 464.7,26.2 465.2,25.3 465.2,25.3 465.2,25.3 464.2,25.7 464.2,25.7 463,26.2 461.8,27 460.4,28.3 459.5,29.1 459.4,29.1 459,28.6 458.8,28.3 458.7,27.6 458.7,27.1 458.7,27.1 458.8,26.2 458.8,26.2 458.8,26.2 458,26.7 458,26.7 457.6,27 456.5,27.9 455.7,28.7 454.8,29.5 454.1,30.2 454,30.1 453.6,29.6 453.3,28.6 453.5,28 453.5,28 453.7,27.2 453.7,27.2 453.7,27.2 452.8,27.9 452.8,27.9 452.4,28.3 451.2,29.5 450.2,30.6 448.4,32.6 448.3,32.6 448,32 447.8,31.7 447.6,31.2 447.6,30.9 447.6,30.1 447.2,30.4 445.4,32.6 443.4,35.1 441,39.7 440.5,42.1 439.6,46.5 441.2,50.6 444.7,52.4 445.5,52.8 445.5,52.8 448.5,50.5 454.9,45.6 462.8,41.4 472.7,37.4 477,35.7 477.1,36 473,38.2 461.6,44.5 453.7,49.8 449.5,54.2 449.5,54.2 448.1,55.7 448.1,55.7 448.1,55.7 448.4,56.7 448.4,56.7 450.2,61.6 455.2,64.7 462.7,65.6 465,65.8 468.3,66 468.3,65.8 Z " />
</g>

</svg>
