<?xml version="1.0" standalone="no"?><!DOCTYPE svg PUBLIC "-//W3C//DTD SVG 1.1//EN"   "http://www.w3.org/Graphics/SVG/1.1/DTD/svg11.dtd"><svg width="864pt" height="212.6pt" viewBox="0 0 864 212.6" version="1.1"    xmlns="http://www.w3.org/2000/svg" xmlns:xlink="http://www.w3.org/1999/xlink">  <defs>  </defs>   <path id="Path0" stroke-width="0.7" stroke="#FF0000" stroke-opacity="1" fill="none" fill-opacity="0" stroke-linecap="round" stroke-linejoin="round" d="M449.5,187.2 C446.7,186.8 444.4,186.1 442,184.9 439.1,183.6 437.4,182.5 435.1,180.3 433.8,179.1 432.7,178.3 431.5,177.9 428.6,176.7 421.5,172.9 420.9,172.2 420.4,171.6 416.7,169.2 415.8,168.9 413.9,168.2 410.1,165.6 407.9,163.3 404,159.3 401.3,154.4 400.5,149.6 400.3,148.5 399.6,146.1 398.9,144.2 398.3,142.4 397.5,139.9 397.2,138.7 396.8,137.1 396.4,136.2 395.5,135.1 391,129.5 389.3,121.7 391,114.7 392.4,109 395.8,103.6 399.6,100.9 401.8,99.4 402.1,98.6 402.5,94.3 403.1,86.5 406,80.7 411.3,76.4 412.5,75.5 414.1,74.4 414.9,73.9 415.7,73.5 416.4,73 416.5,72.9 416.6,72.8 415.9,72.5 415,72.2 413.7,71.9 413.1,71.5 412.3,70.6 411.7,70 411.3,69.3 411.3,69 411.3,68.8 410.9,68.5 410.5,68.4 408.3,67.9 406.5,66.2 406.1,64.3 406,63.9 405.5,63.3 405.1,63.1 403.3,62.2 401.6,59.7 401.6,58 401.6,57.6 401.4,57.2 400.9,56.9 400,56.2 399.1,54.4 399.1,53 399.1,52.2 398.8,51.5 398.2,50.5 397.4,49.4 397.2,48.9 397.2,47.3 397.2,46 397,45.2 396.6,44.5 395.8,43.2 395.8,41.6 396.5,40.2 397,39.2 397,39.1 396.7,38.1 396.1,36.8 396.1,35.7 396.8,34.6 397.6,33.3 399,32.6 400.7,32.6 401.8,32.6 402.2,32.4 402.6,32 403.6,30.9 405.4,30.2 407.6,30.1 409.1,30 409.9,29.8 410.6,29.3 411.4,28.8 412,28.6 413.1,28.6 414.1,28.6 415,28.4 415.6,28.1 417,27.2 418.2,27.1 420.1,27.6 421.7,28 421.9,28 422.3,27.6 423.3,26.8 424.9,26.8 426.9,27.6 428.4,28.2 428.9,28.3 429.6,28 430.5,27.7 432.1,27.9 433.3,28.6 434,29 434.8,29.2 436,29.2 438,29.2 439.6,29.9 440.5,31.2 441.1,31.9 441.3,32 442.4,32 443.6,32 444,32.2 445.5,33.4 448.4,35.8 450.7,39.3 452.4,43.9 452.4,43.9 453.1,46 453.1,46 453.1,46 453.8,44.2 453.8,44.2 455.2,40.2 457.3,36.7 459.7,34.5 461.9,32.4 462.6,32 463.8,32 464.8,32 465.2,31.8 466,31 467.4,29.6 468.3,29.2 470.3,29.2 471.6,29.2 472.4,29 473.5,28.4 474.9,27.8 475.2,27.7 476.4,28 477.6,28.3 477.9,28.2 479.4,27.6 481.4,26.8 482.3,26.7 483.6,27.5 484.7,28 484.8,28 486.1,27.6 487.4,27.2 487.8,27.2 489.1,27.5 489.9,27.6 490.8,28 491,28.2 491.2,28.5 491.8,28.6 492.8,28.6 494.3,28.6 496.3,29.3 496.3,29.7 496.3,29.9 497.3,30 498.6,30.1 501,30.3 503.2,31.1 503.7,32 503.9,32.5 504.3,32.6 505.4,32.6 508.9,32.6 510.7,35 509.6,38.2 509.4,39 509.4,39.4 509.9,40.6 510.5,41.9 510.5,42.3 510.2,43.3 510.1,43.9 509.7,44.7 509.4,45.1 509,45.6 508.9,45.9 509.2,46.7 509.5,47.7 508.9,49.7 507.8,51 507.4,51.5 507.2,52.1 507.2,53.1 507.1,54.6 506.8,55.3 505.5,56.7 505,57.3 504.6,58.1 504.5,58.8 504.2,60.1 503.4,61.5 501.8,62.7 501.2,63.1 500.3,64.3 499.9,65.1 498.9,66.9 498.1,67.6 496.5,68.2 495.6,68.5 495.2,68.9 494.7,69.7 494,71 492.7,71.9 491,72.3 490.4,72.5 489.8,72.7 489.8,72.8 489.8,72.9 490.9,73.6 492.1,74.4 493.4,75.2 495.5,76.9 497,78.4 499.3,80.6 499.8,81.3 501.1,83.9 502.8,87.4 503.6,90.5 503.9,94.7 504.1,98.3 504.6,99.4 506.5,100.8 510.8,104 514.3,109.6 515.5,115.6 515.8,117.2 515.9,118.8 515.8,121.4 515.7,124.4 515.6,125.3 514.8,127.6 513.7,130.7 513,132 510.9,134.9 510,136.1 509.4,137.3 509.3,138 509.1,138.6 508.4,141.2 507.5,143.8 506.7,146.4 505.8,149.4 505.6,150.6 504.5,155.2 502,159.7 498.4,163.3 495.9,165.8 493.3,167.7 490.8,168.7 489.8,169.1 488.2,170.1 487.1,170.9 484,173.2 479.3,176 476.1,177.3 473.8,178.2 472.8,178.8 471.4,180.2 467.9,183.4 464.1,185.5 459.9,186.6 457.3,187.3 452,187.6 449.5,187.2 Z " />
</svg>
