<?xml version="1.0" standalone="no"?><!DOCTYPE svg PUBLIC "-//W3C//DTD SVG 1.1//EN"   "http://www.w3.org/Graphics/SVG/1.1/DTD/svg11.dtd"><svg width="864pt" height="212.6pt" viewBox="0 0 864 212.6" version="1.1"    xmlns="http://www.w3.org/2000/svg" xmlns:xlink="http://www.w3.org/1999/xlink">  <defs>  </defs><g id="Group ID: 1">
   <path id="Path0" stroke-width="0.7" stroke="#FF0000" stroke-opacity="1" fill="none" fill-opacity="0" stroke-linecap="round" stroke-linejoin="round" d="M411.2,65.5 C417.9,64.6 422.1,62.2 424.3,57.9 424.8,56.9 425.2,56 425.2,55.8 425.2,55 418.5,49.4 413.6,46.1 409.9,43.7 403.4,39.9 399.3,37.8 397.7,37 396.3,36.2 396.3,36.1 396.3,35.6 405.8,39.4 411.1,42.1 416.5,44.8 423.5,49.1 425.8,51.2 426.2,51.5 426.8,52.1 427.1,52.4 427.1,52.4 427.8,52.9 427.8,52.9 427.8,52.9 429.3,51.9 429.3,51.9 432.1,50 433.4,47.1 433.1,43.8 432.7,40.2 430.2,35.1 427.2,31.8 427.2,31.8 425.9,30.3 425.9,30.3 425.9,30.3 425.5,31.6 425.5,31.6 425.5,31.6 425.2,32.8 425.2,32.8 425.2,32.8 422.5,30 422.5,30 422.5,30 419.9,27.2 419.9,27.2 419.9,27.2 419.8,28.3 419.8,28.3 419.8,29 419.7,29.7 419.4,29.9 419.1,30.1 418.8,30 418,29.1 417.5,28.5 416.5,27.6 415.7,27.1 415.7,27.1 414.4,26.1 414.4,26.1 414.4,26.1 414.6,26.9 414.6,26.9 414.7,27.3 414.6,27.9 414.3,28.3 414.3,28.3 413.9,29 413.9,29 413.9,29 411.9,27.5 411.9,27.5 410.8,26.7 409.6,25.9 409.1,25.7 409.1,25.7 408.2,25.4 408.2,25.4 408.2,25.4 408.6,26 408.6,26 409.1,26.8 409.2,27.8 408.8,28 408.6,28.1 408,27.9 407.3,27.5 406.1,26.8 402.9,25.6 402.2,25.6 402.1,25.6 402.3,26 402.7,26.5 403.4,27.4 403.5,28.4 402.8,28.3 402.6,28.2 401.6,28 400.6,27.7 399.5,27.4 398.2,27 397.6,26.9 397.6,26.9 396.4,26.7 396.4,26.7 396.4,26.7 397.1,27.4 397.1,27.4 397.8,28.2 397.9,29.5 397.2,29.4 396.9,29.3 396.1,29.1 395.2,28.9 393.6,28.4 390,28.3 389.7,28.6 389.6,28.8 389.9,29.3 390.4,29.8 390.4,29.8 391.3,30.7 391.3,30.7 391.3,30.7 387.5,30.7 387.5,30.7 387.5,30.7 383.8,30.7 383.8,30.7 383.8,30.7 384.4,31.6 384.4,31.6 385.2,32.9 386.7,35.9 386.7,36.4 386.7,36.6 386.3,36.7 385.1,36.6 384.2,36.6 383.5,36.6 383.5,36.7 383.5,37 385.1,38.8 386.6,40.2 387.4,41 388,41.7 387.9,41.9 387.8,42 387,42.1 386.2,42 386.2,42 384.7,41.9 384.7,41.9 384.7,41.9 385.2,42.7 385.2,42.7 385.5,43.2 386.5,44.3 387.6,45.3 388.6,46.2 389.4,47.1 389.3,47.2 389.2,47.4 388.6,47.5 387.8,47.5 387.8,47.5 386.5,47.5 386.5,47.5 386.5,47.5 387.9,48.8 387.9,48.8 388.7,49.5 390,50.5 390.8,51.1 391.7,51.6 392.3,52.2 392.2,52.3 392.1,52.5 391.4,52.6 390.7,52.6 390.7,52.6 389.4,52.6 389.4,52.6 389.4,52.6 390.4,53.6 390.4,53.6 391,54.1 392.6,55.1 393.8,55.7 395.1,56.4 396.2,56.9 396.3,57 396.5,57.2 395.9,57.5 394.8,57.7 394.8,57.7 393.6,57.8 393.6,57.8 393.6,57.8 394.6,58.5 394.6,58.5 395.1,58.8 396.8,59.5 398.3,60 398.3,60 401,60.9 401,60.9 401,60.9 400,61.7 400,61.7 400,61.7 399.1,62.4 399.1,62.4 399.1,62.4 400,62.7 400,62.7 400.6,62.9 402.2,63.2 403.8,63.3 405.4,63.5 406.7,63.7 406.9,63.9 407,64 406.6,64.5 406,65 406,65 405,65.9 405,65.9 405,65.9 406.5,65.9 406.5,65.9 407.4,65.9 409.5,65.7 411.2,65.5 Z " />
   <path id="Path1" stroke-width="0.7" stroke="#FF0000" stroke-opacity="1" fill="none" fill-opacity="0" stroke-linecap="round" stroke-linejoin="round" d="M468.3,65.8 C468.3,65.7 467.9,65.4 467.3,65.1 466.4,64.6 466,63.6 466.5,63.6 470.3,63.4 474.3,62.7 474.3,62.2 474.3,62.1 473.9,61.9 473.4,61.7 472.9,61.5 472.6,61.3 472.6,61.1 472.7,60.9 473.9,60.4 475.5,59.8 477,59.3 478.6,58.7 479,58.4 479,58.4 479.8,57.8 479.8,57.8 479.8,57.8 478.6,57.7 478.6,57.7 477.5,57.5 476.9,57.2 477.1,57 477.2,57 478.5,56.2 480,55.4 481.5,54.6 483,53.6 483.4,53.2 483.4,53.2 484,52.6 484,52.6 484,52.6 482.7,52.6 482.7,52.6 482,52.6 481.3,52.5 481.3,52.3 481.2,52.2 482.1,51.4 483.3,50.5 484.5,49.6 485.8,48.5 486.2,48.2 486.2,48.2 486.8,47.5 486.8,47.5 486.8,47.5 485.4,47.5 485.4,47.5 484.6,47.5 483.9,47.4 483.9,47.3 483.9,47.2 484.8,46.2 486,45 487.2,43.9 488.2,42.8 488.4,42.4 488.7,41.9 488.6,41.9 487.2,42 486.3,42.1 485.6,42 485.5,41.8 485.4,41.7 486.3,40.6 487.5,39.5 488.6,38.3 489.6,37.2 489.6,37 489.6,36.8 489.1,36.7 488.1,36.7 488.1,36.7 486.7,36.7 486.7,36.7 486.7,36.7 486.9,35.8 486.9,35.8 486.9,35.3 487.5,34 488.1,33 488.7,32 489.2,31.1 489.2,30.9 489.3,30.8 487.7,30.7 485.7,30.7 485.7,30.7 482.1,30.7 482.1,30.7 482.1,30.7 483,29.8 483,29.8 483.5,29.3 483.8,28.8 483.7,28.6 483.3,28.3 479.7,28.5 477.7,29 476.6,29.3 475.6,29.4 475.6,29.4 475.2,29 475.4,28.5 476.1,27.6 476.1,27.6 476.9,26.8 476.9,26.8 476.9,26.8 475.9,26.9 475.9,26.9 474.8,27.1 471.2,28 470.5,28.3 469.7,28.6 469.9,27.3 470.8,26.4 471.2,26 471.4,25.6 471.2,25.6 470.5,25.6 467.2,26.8 466.1,27.5 465.4,27.8 464.8,28.2 464.6,28.2 464.1,28.2 464.2,27 464.7,26.2 464.7,26.2 465.2,25.3 465.2,25.3 465.2,25.3 464.2,25.7 464.2,25.7 463,26.2 461.8,27 460.4,28.3 459.5,29.1 459.4,29.1 459,28.6 458.8,28.3 458.7,27.6 458.7,27.1 458.7,27.1 458.8,26.2 458.8,26.2 458.8,26.2 458,26.7 458,26.7 457.6,27 456.5,27.9 455.7,28.7 454.8,29.5 454.1,30.2 454,30.1 453.6,29.6 453.3,28.6 453.5,28 453.5,28 453.7,27.2 453.7,27.2 453.7,27.2 452.8,27.9 452.8,27.9 452.4,28.3 451.2,29.5 450.2,30.6 448.4,32.6 448.3,32.6 448,32 447.8,31.7 447.6,31.2 447.6,30.9 447.6,30.1 447.2,30.4 445.4,32.6 443.4,35.1 441,39.7 440.5,42.1 439.6,46.5 441.2,50.6 444.7,52.4 445.5,52.8 445.5,52.8 448.5,50.5 454.9,45.6 462.8,41.4 472.7,37.4 477,35.7 477.1,36 473,38.2 461.6,44.5 453.7,49.8 449.5,54.2 449.5,54.2 448.1,55.7 448.1,55.7 448.1,55.7 448.4,56.7 448.4,56.7 450.2,61.6 455.2,64.7 462.7,65.6 465,65.8 468.3,66 468.3,65.8 Z " />
</g>

</svg>
